<?xml version="1.0" encoding="UTF-8" standalone="no"?>
<svg
   xmlns:dc="http://purl.org/dc/elements/1.1/"
   xmlns:cc="http://creativecommons.org/ns#"
   xmlns:rdf="http://www.w3.org/1999/02/22-rdf-syntax-ns#"
   xmlns:svg="http://www.w3.org/2000/svg"
   xmlns="http://www.w3.org/2000/svg"
   xmlns:sodipodi="http://sodipodi.sourceforge.net/DTD/sodipodi-0.dtd"
   xmlns:inkscape="http://www.inkscape.org/namespaces/inkscape"
   viewBox="0 0 266 150"
   fill="none"
   version="1.1"
   id="svg941"
   sodipodi:docname="a.svg"
   inkscape:version="1.0.1 (3bc2e813f5, 2020-09-07)"><metadata
   id="metadata947">
  <rdf:RDF>
    <cc:Work
       rdf:about="">
      <dc:format>image/svg+xml</dc:format>
      <dc:type
         rdf:resource="http://purl.org/dc/dcmitype/StillImage" />
      <dc:title></dc:title>
    </cc:Work>
  </rdf:RDF>
</metadata>
<defs
   id="defs945" />
<sodipodi:namedview
   pagecolor="#ffffff"
   bordercolor="#666666"
   borderopacity="1"
   objecttolerance="10"
   gridtolerance="10"
   guidetolerance="10"
   inkscape:pageopacity="0"
   inkscape:pageshadow="2"
   inkscape:window-width="1920"
   inkscape:window-height="1016"
   id="namedview943"
   showgrid="false"
   inkscape:pagecheckerboard="true"
   inkscape:zoom="4.943609"
   inkscape:cx="171.93916"
   inkscape:cy="75"
   inkscape:window-x="0"
   inkscape:window-y="27"
   inkscape:window-maximized="1"
   inkscape:current-layer="svg941" />
<path
   fill="var(--solid)"
   d="M0 0h266v150H0z"
   id="path909" />
<rect
   id="rect911" />
{20.5}
        y={43.5}
        width={67}
        height={62}
        rx={1.5}
        fill=&quot;var(--solid)&quot;
        stroke=&quot;var(--base-400)&quot;
      /&gt;
      <path
   d="M48.556 69h10.888c.86 0 1.556-.696 1.556-1.556V56.556c0-.86-.696-1.556-1.556-1.556H48.556c-.86 0-1.556.696-1.556 1.556v10.888c0 .86.696 1.556 1.556 1.556zm0 0l8.555-8.556L61 64.334m-8.556-5.056a1.167 1.167 0 11-2.333 0 1.167 1.167 0 012.333 0z"
   stroke="var(--base-500)"
   id="path913"
   style="fill:#333333" />
{1.2}
        strokeLinecap=&quot;round&quot;
        strokeLinejoin=&quot;round&quot;
      /&gt;
      <path
   d="M26 88a1 1 0 011-1h48a1 1 0 110 2H27a1 1 0 01-1-1zM26 93a1 1 0 011-1h40a1 1 0 110 2H27a1 1 0 01-1-1z"
   fill="var(--base-500)"
   id="path915"
   style="fill:#333333" />
<path
   d="M26 98a1 1 0 011-1h11a1 1 0 110 2H27a1 1 0 01-1-1z"
   fill="var(--main-500)"
   id="path917"
   style="fill:#333333" />
<path
   d="M26 82.5a1.5 1.5 0 011.5-1.5h32a1.5 1.5 0 010 3h-32a1.5 1.5 0 01-1.5-1.5z"
   fill="var(--solid-900)"
   id="path919"
   style="fill:#333333" />
<rect
   id="rect921" />
{99.5}
        y={43.5}
        width={67}
        height={62}
        rx={1.5}
        fill=&quot;var(--solid)&quot;
        stroke=&quot;var(--base-400)&quot;
      /&gt;
      <path
   d="M127.556 69h10.888c.86 0 1.556-.696 1.556-1.556V56.556c0-.86-.696-1.556-1.556-1.556h-10.888c-.86 0-1.556.696-1.556 1.556v10.888c0 .86.696 1.556 1.556 1.556zm0 0l8.555-8.556 3.889 3.89m-8.556-5.056a1.166 1.166 0 11-2.333 0 1.166 1.166 0 012.333 0z"
   stroke="var(--base-500)"
   id="path923"
   style="fill:#333333" />
{1.2}
        strokeLinecap=&quot;round&quot;
        strokeLinejoin=&quot;round&quot;
      /&gt;
      <path
   d="M105 88a1 1 0 011-1h48a1 1 0 010 2h-48a1 1 0 01-1-1zM105 93a1 1 0 011-1h40a1 1 0 010 2h-40a1 1 0 01-1-1z"
   fill="var(--base-500)"
   id="path925"
   style="fill:#333333" />
<path
   d="M105 98a1 1 0 011-1h11a1 1 0 010 2h-11a1 1 0 01-1-1z"
   fill="var(--main-500)"
   id="path927"
   style="fill:#333333" />
<path
   d="M105 82.5a1.5 1.5 0 011.5-1.5h32a1.5 1.5 0 010 3h-32a1.5 1.5 0 01-1.5-1.5z"
   fill="var(--solid-900)"
   id="path929"
   style="fill:#333333" />
<rect
   id="rect931" />
{178.5}
        y={43.5}
        width={67}
        height={62}
        rx={1.5}
        fill=&quot;var(--solid)&quot;
        stroke=&quot;var(--base-400)&quot;
      /&gt;
      <path
   d="M206.556 69h10.888c.86 0 1.556-.696 1.556-1.556V56.556c0-.86-.696-1.556-1.556-1.556h-10.888c-.86 0-1.556.696-1.556 1.556v10.888c0 .86.696 1.556 1.556 1.556zm0 0l8.555-8.556 3.889 3.89m-8.556-5.056a1.166 1.166 0 11-2.333 0 1.166 1.166 0 012.333 0z"
   stroke="var(--base-500)"
   id="path933"
   style="fill:#333333" />
{1.2}
        strokeLinecap=&quot;round&quot;
        strokeLinejoin=&quot;round&quot;
      /&gt;
      <path
   d="M184 88a1 1 0 011-1h48a1 1 0 010 2h-48a1 1 0 01-1-1zM184 93a1 1 0 011-1h40a1 1 0 010 2h-40a1 1 0 01-1-1z"
   fill="var(--base-500)"
   id="path935"
   style="fill:#333333" />
<path
   d="M184 98a1 1 0 011-1h11a1 1 0 010 2h-11a1 1 0 01-1-1z"
   fill="var(--main-500)"
   id="path937"
   style="fill:#333333" />
<path
   d="M184 82.5a1.5 1.5 0 011.5-1.5h32a1.5 1.5 0 010 3h-32a1.5 1.5 0 01-1.5-1.5z"
   fill="var(--solid-900)"
   id="path939"
   style="fill:#333333" />
</svg>
