<?xml version="1.0" encoding="UTF-8" standalone="no"?>
<svg
   xmlns:dc="http://purl.org/dc/elements/1.1/"
   xmlns:cc="http://creativecommons.org/ns#"
   xmlns:rdf="http://www.w3.org/1999/02/22-rdf-syntax-ns#"
   xmlns:svg="http://www.w3.org/2000/svg"
   xmlns="http://www.w3.org/2000/svg"
   xmlns:sodipodi="http://sodipodi.sourceforge.net/DTD/sodipodi-0.dtd"
   xmlns:inkscape="http://www.inkscape.org/namespaces/inkscape"
   viewBox="0 0 266 150"
   fill="none"
   version="1.1"
   id="svg1624"
   sodipodi:docname="b.svg"
   inkscape:version="1.0.1 (3bc2e813f5, 2020-09-07)"><metadata
   id="metadata1630">
  <rdf:RDF>
    <cc:Work
       rdf:about="">
      <dc:format>image/svg+xml</dc:format>
      <dc:type
         rdf:resource="http://purl.org/dc/dcmitype/StillImage" />
    </cc:Work>
  </rdf:RDF>
</metadata>
<defs
   id="defs1628" />
<sodipodi:namedview
   pagecolor="#ffffff"
   bordercolor="#666666"
   borderopacity="1"
   objecttolerance="10"
   gridtolerance="10"
   guidetolerance="10"
   inkscape:pageopacity="0"
   inkscape:pageshadow="2"
   inkscape:window-width="1920"
   inkscape:window-height="1016"
   id="namedview1626"
   showgrid="false"
   inkscape:zoom="4.943609"
   inkscape:cx="133"
   inkscape:cy="75"
   inkscape:window-x="0"
   inkscape:window-y="27"
   inkscape:window-maximized="1"
   inkscape:current-layer="svg1624" />
<path
   fill="var(--solid)"
   d="M0 0h266v150H0z"
   id="path1598" />
<rect
   id="rect1600" />
{20}
        y={43}
        width={68}
        height={63}
        rx={2}
        fill=&quot;var(--base-200)&quot;
      /&gt;
      <path
   d="M29 73a1 1 0 011-1h48a1 1 0 110 2H30a1 1 0 01-1-1zM33 78a1 1 0 011-1h40a1 1 0 110 2H34a1 1 0 01-1-1z"
   fill="var(--base-500)"
   id="path1602"
   style="fill:#333333" />
<path
   d="M48 83a1 1 0 011-1h11a1 1 0 110 2H49a1 1 0 01-1-1z"
   fill="var(--main-500)"
   id="path1604"
   style="fill:#333333" />
<path
   d="M37 67.5a1.5 1.5 0 011.5-1.5h32a1.5 1.5 0 010 3h-32a1.5 1.5 0 01-1.5-1.5z"
   fill="var(--solid-900)"
   id="path1606"
   style="fill:#333333" />
<rect
   id="rect1608" />
{99}
        y={43}
        width={68}
        height={63}
        rx={2}
        fill=&quot;var(--base-200)&quot;
      /&gt;
      <path
   d="M108 73a1 1 0 011-1h48a1 1 0 010 2h-48a1 1 0 01-1-1zM112 78a1 1 0 011-1h40a1 1 0 010 2h-40a1 1 0 01-1-1z"
   fill="var(--base-500)"
   id="path1610"
   style="fill:#333333" />
<path
   d="M127 83a1 1 0 011-1h11a1 1 0 010 2h-11a1 1 0 01-1-1z"
   fill="var(--main-500)"
   id="path1612"
   style="fill:#333333" />
<path
   d="M116 67.5a1.5 1.5 0 011.5-1.5h32a1.5 1.5 0 010 3h-32a1.5 1.5 0 01-1.5-1.5z"
   fill="var(--solid-900)"
   id="path1614"
   style="fill:#333333" />
<rect
   id="rect1616" />
{178}
        y={43}
        width={68}
        height={63}
        rx={2}
        fill=&quot;var(--base-200)&quot;
      /&gt;
      <path
   d="M187 73a1 1 0 011-1h48a1 1 0 010 2h-48a1 1 0 01-1-1zM191 78a1 1 0 011-1h40a1 1 0 010 2h-40a1 1 0 01-1-1z"
   fill="var(--base-500)"
   id="path1618"
   style="fill:#333333" />
<path
   d="M206 83a1 1 0 011-1h11a1 1 0 010 2h-11a1 1 0 01-1-1z"
   fill="var(--main-500)"
   id="path1620"
   style="fill:#333333" />
<path
   d="M195 67.5a1.5 1.5 0 011.5-1.5h32a1.5 1.5 0 010 3h-32a1.5 1.5 0 01-1.5-1.5z"
   fill="var(--solid-900)"
   id="path1622"
   style="fill:#333333" />
</svg>
