<?xml version="1.0" encoding="UTF-8" standalone="no"?>
<svg
   xmlns:dc="http://purl.org/dc/elements/1.1/"
   xmlns:cc="http://creativecommons.org/ns#"
   xmlns:rdf="http://www.w3.org/1999/02/22-rdf-syntax-ns#"
   xmlns:svg="http://www.w3.org/2000/svg"
   xmlns="http://www.w3.org/2000/svg"
   xmlns:sodipodi="http://sodipodi.sourceforge.net/DTD/sodipodi-0.dtd"
   xmlns:inkscape="http://www.inkscape.org/namespaces/inkscape"
   viewBox="0 0 266 150"
   fill="none"
   version="1.1"
   id="svg2459"
   sodipodi:docname="e.svg"
   inkscape:version="1.0.1 (3bc2e813f5, 2020-09-07)"><metadata
   id="metadata2465">
  <rdf:RDF>
    <cc:Work
       rdf:about="">
      <dc:format>image/svg+xml</dc:format>
      <dc:type
         rdf:resource="http://purl.org/dc/dcmitype/StillImage" />
    </cc:Work>
  </rdf:RDF>
</metadata>
<defs
   id="defs2463" />
<sodipodi:namedview
   pagecolor="#ffffff"
   bordercolor="#666666"
   borderopacity="1"
   objecttolerance="10"
   gridtolerance="10"
   guidetolerance="10"
   inkscape:pageopacity="0"
   inkscape:pageshadow="2"
   inkscape:window-width="1920"
   inkscape:window-height="1016"
   id="namedview2461"
   showgrid="false"
   inkscape:zoom="4.943609"
   inkscape:cx="133"
   inkscape:cy="75"
   inkscape:window-x="0"
   inkscape:window-y="27"
   inkscape:window-maximized="1"
   inkscape:current-layer="svg2459" />
<path
   fill="var(--solid)"
   d="M0 0h266v150H0z"
   id="path2421" />
<path
   d="M39 70.5a1.5 1.5 0 011.5-1.5h46a1.5 1.5 0 010 3h-46a1.5 1.5 0 01-1.5-1.5zM39 76.5a1.5 1.5 0 011.5-1.5h40a1.5 1.5 0 010 3h-40a1.5 1.5 0 01-1.5-1.5z"
   fill="var(--base-500)"
   id="path2423"
   style="fill:#333333" />
<path
   d="M39 58.5a1.5 1.5 0 011.5-1.5h14a1.5 1.5 0 010 3h-14a1.5 1.5 0 01-1.5-1.5z"
   fill="var(--main-500)"
   id="path2425"
   style="fill:#333333" />
<path
   d="M39 64.5a1.5 1.5 0 011.5-1.5h32a1.5 1.5 0 010 3h-32a1.5 1.5 0 01-1.5-1.5z"
   fill="var(--solid-900)"
   id="path2427"
   style="fill:#333333" />
<path
   d="M20 60a3 3 0 013-3h6a3 3 0 110 6h-6a3 3 0 01-3-3z"
   fill="var(--base-300)"
   id="path2429"
   style="fill:#333333" />
<circle
   id="circle2431" />
{44} cy={88} r={5} fill=&quot;var(--base-300)&quot; /&gt;
      <path
   d="M51 87.5a1.5 1.5 0 011.5-1.5h18a1.5 1.5 0 010 3h-18a1.5 1.5 0 01-1.5-1.5z"
   fill="var(--solid-900)"
   id="path2433"
   style="fill:#333333" />
<path
   d="M118 70.5a1.5 1.5 0 011.5-1.5h46a1.5 1.5 0 010 3h-46a1.5 1.5 0 01-1.5-1.5zM118 76.5a1.5 1.5 0 011.5-1.5h40a1.5 1.5 0 010 3h-40a1.5 1.5 0 01-1.5-1.5z"
   fill="var(--base-500)"
   id="path2435"
   style="fill:#333333" />
<path
   d="M118 58.5a1.5 1.5 0 011.5-1.5h14a1.5 1.5 0 010 3h-14a1.5 1.5 0 01-1.5-1.5z"
   fill="var(--main-500)"
   id="path2437"
   style="fill:#333333" />
<path
   d="M118 64.5a1.5 1.5 0 011.5-1.5h32a1.5 1.5 0 010 3h-32a1.5 1.5 0 01-1.5-1.5z"
   fill="var(--solid-900)"
   id="path2439"
   style="fill:#333333" />
<path
   d="M99 60a3 3 0 013-3h6a3 3 0 110 6h-6a3 3 0 01-3-3z"
   fill="var(--base-300)"
   id="path2441"
   style="fill:#333333" />
<circle
   id="circle2443" />
{123} cy={88} r={5} fill=&quot;var(--base-300)&quot; /&gt;
      <path
   d="M130 87.5a1.5 1.5 0 011.5-1.5h18a1.5 1.5 0 010 3h-18a1.5 1.5 0 01-1.5-1.5z"
   fill="var(--solid-900)"
   id="path2445"
   style="fill:#333333" />
<path
   d="M197 70.5a1.5 1.5 0 011.5-1.5h46a1.5 1.5 0 010 3h-46a1.5 1.5 0 01-1.5-1.5zM197 76.5a1.5 1.5 0 011.5-1.5h40a1.5 1.5 0 010 3h-40a1.5 1.5 0 01-1.5-1.5z"
   fill="var(--base-500)"
   id="path2447"
   style="fill:#333333" />
<path
   d="M197 58.5a1.5 1.5 0 011.5-1.5h14a1.5 1.5 0 010 3h-14a1.5 1.5 0 01-1.5-1.5z"
   fill="var(--main-500)"
   id="path2449"
   style="fill:#333333" />
<path
   d="M197 64.5a1.5 1.5 0 011.5-1.5h32a1.5 1.5 0 010 3h-32a1.5 1.5 0 01-1.5-1.5z"
   fill="var(--solid-900)"
   id="path2451"
   style="fill:#333333" />
<path
   d="M178 60a3 3 0 013-3h6a3 3 0 110 6h-6a3 3 0 01-3-3z"
   fill="var(--base-300)"
   id="path2453"
   style="fill:#333333" />
<circle
   id="circle2455" />
{202} cy={88} r={5} fill=&quot;var(--base-300)&quot; /&gt;
      <path
   d="M209 87.5a1.5 1.5 0 011.5-1.5h18a1.5 1.5 0 010 3h-18a1.5 1.5 0 01-1.5-1.5z"
   fill="var(--solid-900)"
   id="path2457"
   style="fill:#333333" />
</svg>
